<?xml version="1.0" encoding="UTF-8"?>
<svg width="200px" height="200px" viewBox="0 0 200 200" version="1.1" xmlns="http://www.w3.org/2000/svg" xmlns:xlink="http://www.w3.org/1999/xlink" xmlns:sketch="http://www.bohemiancoding.com/sketch/ns">
    <!-- Generator: Sketch 3.5.1 (25234) - http://www.bohemiancoding.com/sketch -->
    <title>3di@3x</title>
    <desc>Created with Sketch.</desc>
    <defs>
        <radialGradient cx="50%" cy="0%" fx="50%" fy="0%" r="100%" id="radialGradient-1">
            <stop stop-color="#FFFFFF" offset="0%"></stop>
            <stop stop-color="#ECECEC" offset="100%"></stop>
        </radialGradient>
    </defs>
    <g id="All" stroke="none" stroke-width="1" fill="none" fill-rule="evenodd" sketch:type="MSPage">
        <g id="All-logos" sketch:type="MSArtboardGroup" transform="translate(-36.000000, -354.000000)">
            <g id="titles" sketch:type="MSLayerGroup" transform="translate(64.000000, 259.000000)"></g>
            <g id="logo-3di" sketch:type="MSLayerGroup" transform="translate(-29.000000, 314.000000)">
                <g id="Group" transform="translate(76.770992, 49.358820)" sketch:type="MSShapeGroup">
                    <g id="Group-2" transform="translate(5.561341, 5.565084)" fill="url(#radialGradient-1)">
                        <path d="M82.8760626,165.605082 C128.532937,165.605082 165.545147,128.579098 165.545147,82.9052317 C165.545147,37.2313656 128.532937,0.205381466 82.8760626,0.205381466 C37.2191879,0.205381466 0.206978042,37.2313656 0.206978042,82.9052317 C0.206978042,128.579098 37.2191879,165.605082 82.8760626,165.605082 Z" id="Mask"></path>
                    </g>
                    <path d="M97.4476876,46.4252999 C119.434706,46.4252999 137.218199,64.2036913 137.218199,86.2034885 C137.218199,108.203515 119.387615,126.03591 97.4005964,126.03591 C97.4005964,126.03591 90.6056738,126.021662 87.1696207,126.021662 L69.4920256,126.021662 C69.0093977,126.049927 65.9875179,126.021662 66.2521477,125.993397 C53.6475434,125.079946 43.6991153,114.579056 43.6991153,101.723876 L43.7142763,101.723876 C43.7142763,97.4008992 47.2199326,93.8930191 51.5433686,93.8930191 C55.8656561,93.8930191 59.3713124,97.401129 59.3713124,101.723876 C59.3713124,101.738124 59.364421,101.752141 59.364421,101.770985 C59.3912974,106.536324 63.2594415,110.397635 68.0335752,110.397635 C72.8173568,110.397635 76.7029591,106.512885 76.7029591,101.723876 C76.7029591,97.1798327 73.1984514,93.4644442 68.7539564,93.0923998 C68.7031897,93.0972255 68.6574768,93.1018215 68.6115341,93.1018215 C64.8187361,93.1018215 61.7414953,90.0222865 61.7414953,86.226928 C61.7414953,82.4327184 64.8187361,79.3531835 68.6115341,79.3531835 C68.6361134,79.3531835 68.6574768,79.3580092 68.6822858,79.3580092 C73.1646835,79.0259498 76.7031888,75.2905688 76.7031888,70.7217072 C76.7031888,65.934077 72.8173568,62.0527737 68.0338049,62.0527737 C63.2736837,62.0527737 59.4174848,65.8858192 59.3715421,70.6357624 C59.3715421,74.9610372 55.8658858,78.4668491 51.5435984,78.4668491 C47.2495657,78.4668491 43.7673401,75.006997 43.7191003,70.7217072 L43.6991153,70.7217072 C43.6991153,57.8748 53.6558131,47.3527682 66.2721328,46.4462116 C66.1970165,46.4413858 66.39457,46.4250701 66.5686928,46.4250701 C67.0522395,46.3956558 67.5419885,46.3768123 68.0338049,46.3768123 C68.525851,46.3768123 69.0165188,46.3956558 69.5014438,46.4250701 L92.58052,46.4250701 L97.4476876,46.4250701 L97.4476876,46.4252999 Z M104.390775,70.5806107 C104.390775,65.892943 100.592005,62.0916097 95.9060809,62.0916097 C91.221076,62.0916097 87.4179409,65.892943 87.4179409,70.5806107 C87.4179409,75.2671293 91.2213058,79.0670838 95.9060809,79.0670838 C100.591775,79.0670838 104.390775,75.2671293 104.390775,70.5806107 L104.390775,70.5806107 Z M104.39537,90.5687483 L104.390546,90.5687483 C104.390546,86.5001589 100.591775,83.2041533 95.9058512,83.2041533 C91.2162521,83.2041533 87.4177112,86.5001589 87.4177112,90.5687483 L87.4128872,90.5687483 L87.4128872,103.748864 L87.4657213,103.748864 C87.9047036,107.459197 91.5151092,110.350756 95.9056215,110.350756 C100.294756,110.350756 103.900797,107.459427 104.342995,103.748864 L104.39491,103.748864 L104.39491,90.5687483 L104.39537,90.5687483 Z" id="Shape" fill="#ED1848"></path>
                    <path d="M88.4160305,176.89787 C137.246856,176.89787 176.832061,137.297933 176.832061,88.448935 C176.832061,39.5999371 137.246856,0 88.4160305,0 C39.5852052,0 2.84217094e-14,39.5999371 2.84217094e-14,88.448935 C2.84217094e-14,137.297933 39.5852052,176.89787 88.4160305,176.89787 Z M88.4160305,169.649372 C133.24511,169.649372 169.58626,133.294698 169.58626,88.448935 C169.58626,43.603172 133.24511,7.24849809 88.4160305,7.24849809 C43.5869509,7.24849809 7.24580153,43.603172 7.24580153,88.448935 C7.24580153,133.294698 43.5869509,169.649372 88.4160305,169.649372 Z" id="Mask" stroke="#FFFFFF" fill="#FFFFFF"></path>
                </g>
            </g>
        </g>
    </g>
</svg>