<?xml version="1.0" encoding="UTF-8"?>
<svg width="200px" height="200px" viewBox="0 0 200 200" version="1.1" xmlns="http://www.w3.org/2000/svg" xmlns:xlink="http://www.w3.org/1999/xlink" xmlns:sketch="http://www.bohemiancoding.com/sketch/ns">
    <!-- Generator: Sketch 3.5.1 (25234) - http://www.bohemiancoding.com/sketch -->
    <title>ddsc@3x</title>
    <desc>Created with Sketch.</desc>
    <defs>
        <linearGradient x1="50%" y1="0%" x2="50%" y2="100%" id="linearGradient-1">
            <stop stop-color="#FFFFFF" offset="0%"></stop>
            <stop stop-color="#ECECEC" offset="100%"></stop>
        </linearGradient>
    </defs>
    <g id="All" stroke="none" stroke-width="1" fill="none" fill-rule="evenodd" sketch:type="MSPage">
        <g id="All-logos" sketch:type="MSArtboardGroup" transform="translate(-1007.000000, -345.000000)">
            <g id="titles" sketch:type="MSLayerGroup" transform="translate(64.000000, 259.000000)"></g>
            <g id="logo-ddsc" sketch:type="MSLayerGroup" transform="translate(1023.000000, 360.000000)">
                <path d="M82.8205204,160.428371 C125.577612,160.428371 160.239082,125.725955 160.239082,82.9183553 C160.239082,40.1107558 125.577612,5.40833973 82.8205204,5.40833973 C40.0634293,5.40833973 5.40195846,40.1107558 5.40195846,82.9183553 C5.40195846,125.725955 40.0634293,160.428371 82.8205204,160.428371 Z" id="Mask" fill="url(#linearGradient-1)" sketch:type="MSShapeGroup"></path>
                <path d="M82.8005049,165.796632 C128.529961,165.796632 165.60101,128.681792 165.60101,82.8983162 C165.60101,37.1148404 128.529961,0 82.8005049,0 C37.0710488,0 0,37.1148404 0,82.8983162 C0,128.681792 37.0710488,165.796632 82.8005049,165.796632 Z M82.8005049,159.003014 C124.782376,159.003014 158.815407,124.92978 158.815407,82.8983162 C158.815407,40.866852 124.782376,6.79361811 82.8005049,6.79361811 C40.8186335,6.79361811 6.78560235,40.866852 6.78560235,82.8983162 C6.78560235,124.92978 40.8186335,159.003014 82.8005049,159.003014 Z" id="Mask" stroke="#FFFFFF" fill="#FFFFFF" sketch:type="MSShapeGroup"></path>
                <g id="Group" transform="translate(31.989583, 54.036458)">
                    <text id="SC" sketch:type="MSTextLayer" font-family="Interstate" font-size="42.4294277" font-weight="bold" letter-spacing="-2.29999995" fill="#8CC63F">
                        <tspan x="54.0364583" y="53.9114583">S</tspan>
                        <tspan x="79.7823101" y="53.9114583">C</tspan>
                    </text>
                    <path d="M11.8905538,50.9467761 C13.2855387,50.9467761 14.4318952,50.8017551 15.3296577,50.5117087 C16.9318186,49.9730512 18.2439134,48.9371868 19.2659815,47.4040847 C20.0808737,46.1748405 20.6678635,44.6003268 21.0269685,42.6804961 C21.2341445,41.5341224 21.3377309,40.470635 21.3377309,39.4900021 C21.3377309,35.7193994 20.5884557,32.7913562 19.0898829,30.7057847 C17.59131,28.6202133 15.1777461,27.5774432 11.8491188,27.5774432 L4.53584353,27.5774432 L4.53584353,50.9467761 L11.8905538,50.9467761 Z M0.392344793,24.0347518 L12.7192535,24.0347518 C16.9042082,24.0347518 20.1499164,25.5194906 22.4564756,28.4890129 C24.5144236,31.1684888 25.5433821,34.6006526 25.5433821,38.7856073 C25.5433821,42.0175525 24.9356751,44.9386898 23.7202427,47.5491071 C21.5794243,52.1622254 17.8986531,54.46875 12.6778186,54.46875 L0.392344793,54.46875 L0.392344793,24.0347518 Z M39.937977,50.9467761 C41.3329618,50.9467761 42.4793184,50.8017551 43.3770809,50.5117087 C44.9792418,49.9730512 46.2913366,48.9371868 47.3134047,47.4040847 C48.1282969,46.1748405 48.7152867,44.6003268 49.0743917,42.6804961 C49.2815677,41.5341224 49.3851541,40.470635 49.3851541,39.4900021 C49.3851541,35.7193994 48.6358789,32.7913562 47.137306,30.7057847 C45.6387332,28.6202133 43.2251693,27.5774432 39.896542,27.5774432 L32.5832667,27.5774432 L32.5832667,50.9467761 L39.937977,50.9467761 Z M28.439768,24.0347518 L40.7666767,24.0347518 C44.9516314,24.0347518 48.1973396,25.5194906 50.5038987,28.4890129 C52.5618467,31.1684888 53.5908053,34.6006526 53.5908053,38.7856073 C53.5908053,42.0175525 52.9830982,44.9386898 51.7676659,47.5491071 C49.6268475,52.1622254 45.9460762,54.46875 40.7252417,54.46875 L28.439768,54.46875 L28.439768,24.0347518 Z" id="DD" fill="#2EABE2" sketch:type="MSShapeGroup"></path>
                    <g id="top" transform="translate(0.432292, 0.000000)" sketch:type="MSShapeGroup">
                        <path d="M0.30356936,3.42789301 C0.30356936,3.42789301 18.0022933,15.5514542 34.8924977,16.3490758 C51.7827022,17.1466974 56.3429909,5.505761 56.3429909,5.505761 L66.6347058,3.87132291 C66.6347058,3.87132291 59.4744419,17.7141611 40.0829947,18.2558294 C20.6915475,18.7974978 0.30356936,3.42789301 0.30356936,3.42789301 Z" id="Path-1" fill="#2EABE2"></path>
                        <path d="M54.1537374,16.5276479 C54.1537374,16.5276479 63.9699954,9.49884997 78.3753109,15.1005589 L78.3753109,0.0846151541 L72.1807629,0.0846151541 C72.1807629,0.0846151541 64.1187479,11.3702568 53.8622058,16.6113645" id="Path-2" fill="#8CC63F"></path>
                    </g>
                </g>
            </g>
        </g>
    </g>
</svg>