<?xml version="1.0" encoding="UTF-8"?>
<svg width="200px" height="200px" viewBox="0 0 200 200" version="1.1" xmlns="http://www.w3.org/2000/svg" xmlns:xlink="http://www.w3.org/1999/xlink" xmlns:sketch="http://www.bohemiancoding.com/sketch/ns">
    <!-- Generator: Sketch 3.5.1 (25234) - http://www.bohemiancoding.com/sketch -->
    <title>kpi@3x</title>
    <desc>Created with Sketch.</desc>
    <defs>
        <radialGradient cx="50%" cy="0%" fx="50%" fy="0%" r="100%" id="radialGradient-1">
            <stop stop-color="#FFFFFF" offset="0%"></stop>
            <stop stop-color="#ECECEC" offset="100%"></stop>
        </radialGradient>
    </defs>
    <g id="All" stroke="none" stroke-width="1" fill="none" fill-rule="evenodd" sketch:type="MSPage">
        <g id="All-logos" sketch:type="MSArtboardGroup" transform="translate(-701.000000, -348.000000)">
            <g id="titles" sketch:type="MSLayerGroup" transform="translate(64.000000, 259.000000)"></g>
            <g id="logo-kpi" sketch:type="MSLayerGroup" transform="translate(647.000000, 320.000000)">
                <g id="Group" transform="translate(71.109415, 45.610049)" sketch:type="MSShapeGroup">
                    <path d="M81.9154711,158.1699 C124.20532,158.1699 158.488015,123.956016 158.488015,81.7510514 C158.488015,39.5460866 124.20532,5.33220248 81.9154711,5.33220248 C39.6256226,5.33220248 5.34292673,39.5460866 5.34292673,81.7510514 C5.34292673,123.956016 39.6256226,158.1699 81.9154711,158.1699 Z" id="Mask" fill="url(#radialGradient-1)"></path>
                    <g transform="translate(42.777461, 39.350689)">
                        <path d="M63.5731161,43.1559646 C46.6314466,62.1675932 3.0169564,84.187884 3.0169564,84.187884 L3.0169564,35.5669291 C3.0169564,35.5669291 -2.37520691,2.12404232 31.9415502,2.12404288 L76.1458031,2.12404288 C76.1458031,2.12404288 71.0077288,34.8129795 63.5731161,43.1559646 Z" id="Path-1" fill="#36ADCD"></path>
                        <path d="M63.4311448,27.1512672 C60.4048919,30.5472724 51.2242987,21.8447583 47.4360164,25.68781 C43.5299939,29.6503042 45.0533791,46.1615839 41.1487572,50.9311585 C36.76883,56.281328 24.3851349,43.3880493 19.9091035,47.5900267 C15.1121568,52.0932706 20.1215672,66.5241661 17.9677028,72.8025644 C14.4150806,83.1582666 3.59738252,84.187884 3.59738252,84.187884 L3.59738252,35.5669291 C3.59738252,35.5669291 -1.79478079,2.12404232 32.5219763,2.12404288 L76.7262293,2.12404288 C76.7262293,2.12404288 68.2225237,21.7744703 63.4311448,27.1512672 Z" id="Path-1" fill="#77D1EA" transform="translate(40.007655, 43.155963) scale(-1, -1) translate(-40.007655, -43.155963) "></path>
                        <ellipse id="Oval-2" fill="#FFFFFF" cx="4.44993362" cy="80.5205346" rx="4.44993362" ry="4.44118057"></ellipse>
                        <ellipse id="Oval-2" fill="#FFFFFF" cx="17.7997345" cy="57.1560629" rx="4.44993362" ry="4.44118057"></ellipse>
                        <ellipse id="Oval-2" fill="#FFFFFF" cx="32.6973383" cy="62.5627175" rx="4.44993362" ry="4.44118057"></ellipse>
                        <ellipse id="Oval-2" fill="#FFFFFF" cx="38.1146488" cy="33.5984964" rx="4.44993362" ry="4.44118057"></ellipse>
                        <ellipse id="Oval-2" fill="#FFFFFF" cx="61.3316938" cy="39.1982459" rx="4.44993362" ry="4.44118057"></ellipse>
                        <ellipse id="Oval-2" fill="#FFFFFF" cx="61.9121199" cy="10.4271196" rx="4.44993362" ry="4.44118057"></ellipse>
                        <ellipse id="Oval-2" fill="#FFFFFF" cx="73.7141177" cy="4.44118057" rx="4.44993362" ry="4.44118057"></ellipse>
                        <path d="M4.52307197,76.9486727 L14.3332207,58.7830163 L18.3258643,60.9672338 L8.37397562,79.5214041 L4.52307197,76.9486727 Z" id="Path-4" fill="#FFFFFF"></path>
                        <path d="M21.9993314,56.8015874 L29.9836628,59.7741102 L28.5935064,62.634596 L20.9953209,59.6832845 L21.9993314,56.8015874 Z" id="Path-4" fill="#FFFFFF"></path>
                        <path d="M31.1865985,59.3077157 L35.2550184,35.1173386 L39.9422437,35.8253111 L35.8432053,60.4485565 L31.1865985,59.3077157 Z" id="Path-5" fill="#FFFFFF"></path>
                        <path d="M42.1051046,32.6014719 L58.8005391,36.6200542 L58.0478963,40.4532622 L40.9751527,36.1004142 L42.1051046,32.6014719 Z" id="Path-6" fill="#FFFFFF"></path>
                        <path d="M59.4037886,35.8701757 L59.6778818,12.9653403 L64.230037,13.0957436 L63.915942,35.7888274 L59.4037886,35.8701757 Z" id="Path-7" fill="#FFFFFF"></path>
                        <path d="M63.8186516,7.34889043 L69.9706668,4.05060607 L72.1752587,7.43319677 L66.240048,10.4233455 L63.8186516,7.34889043 Z" id="Path-8" fill="#FFFFFF"></path>
                    </g>
                    <path d="M81.8956743,163.462589 C127.125406,163.462589 163.791349,126.870242 163.791349,81.7312944 C163.791349,36.5923469 127.125406,0 81.8956743,0 C36.6659423,0 0,36.5923469 0,81.7312944 C0,126.870242 36.6659423,163.462589 81.8956743,163.462589 Z M81.8956743,156.76461 C123.418775,156.76461 157.079898,123.17105 157.079898,81.7312944 C157.079898,40.2915387 123.418775,6.69797925 81.8956743,6.69797925 C40.372574,6.69797925 6.71145038,40.2915387 6.71145038,81.7312944 C6.71145038,123.17105 40.372574,156.76461 81.8956743,156.76461 Z" id="Mask" stroke="#FFFFFF" fill="#FFFFFF"></path>
                </g>
            </g>
        </g>
    </g>
</svg>