<?xml version="1.0" encoding="UTF-8"?>
<svg width="200px" height="200px" viewBox="0 0 200 200" version="1.1" xmlns="http://www.w3.org/2000/svg" xmlns:xlink="http://www.w3.org/1999/xlink" xmlns:sketch="http://www.bohemiancoding.com/sketch/ns">
    <!-- Generator: Sketch 3.5.1 (25234) - http://www.bohemiancoding.com/sketch -->
    <title>lizard-import@3x</title>
    <desc>Created with Sketch.</desc>
    <defs>
        <linearGradient x1="50%" y1="0%" x2="50%" y2="100%" id="linearGradient-1">
            <stop stop-color="#FFFFFF" offset="0%"></stop>
            <stop stop-color="#ECECEC" offset="100%"></stop>
        </linearGradient>
        <path id="path-2" d="M77.8205204,155.428371 C120.577612,155.428371 155.239082,120.725955 155.239082,77.9183553 C155.239082,35.1107558 120.577612,0.408339732 77.8205204,0.408339732 C35.0634293,0.408339732 0.401958461,35.1107558 0.401958461,77.9183553 C0.401958461,120.725955 35.0634293,155.428371 77.8205204,155.428371 Z"></path>
    </defs>
    <g id="All" stroke="none" stroke-width="1" fill="none" fill-rule="evenodd" sketch:type="MSPage">
        <g id="All-logos" sketch:type="MSArtboardGroup" transform="translate(-1270.000000, -55.000000)">
            <g id="logo-import" sketch:type="MSLayerGroup" transform="translate(1286.000000, 74.000000)">
                <g id="LogoLizard_def_rgb" transform="translate(5.000000, 5.000000)">
                    <mask id="mask-3" sketch:name="Mask" fill="white">
                        <use xlink:href="#path-2"></use>
                    </mask>
                    <use id="Mask" fill="url(#linearGradient-1)" sketch:type="MSShapeGroup" xlink:href="#path-2"></use>
                    <g mask="url(#mask-3)" sketch:type="MSShapeGroup">
                        <g transform="translate(-3.000000, 21.000000)">
                            <path d="M75.2263953,54.8181053 L85.9052093,54.8181053 L155.322209,54.8181053 C158.260814,54.8181053 160.662558,57.2357895 160.662558,60.1896842 L160.662558,103.154737 C160.662558,106.110526 158.260814,108.526316 155.322209,108.526316 L5.80939535,108.526316 C2.87267442,108.526316 0.470930233,106.110526 0.470930233,103.154737 L0.470930233,60.1896842 C0.470930233,57.2357895 2.87267442,54.8181053 5.80939535,54.8181053 L75.2263953,54.8181053" id="Fill-4" stroke="none" fill="#D9D9D6" fill-rule="evenodd"></path>
                            <path d="M160.662558,49.5414737 L152.662558,89.4218947 L6.47093023,89.4218947 L0.470930233,49.5414737 C0.470930233,49.5414737 28.6231395,43.2130526 80.5667442,43.2130526 C132.508465,43.2130526 160.662558,49.5414737 160.662558,49.5414737 Z" id="Fill-7" stroke="none" fill="#D9D9D6" fill-rule="evenodd"></path>
                            <path d="M80.5667442,43.2130526 C132.508465,43.2130526 160.662558,49.5414737 160.662558,49.5414737 L160.662558,89.4218947 L0.470930233,89.4218947 L0.470930233,49.5414737 C0.470930233,49.5414737 28.6231395,43.2130526 80.5667442,43.2130526 L80.5667442,43.2130526 Z" id="Stroke-8" stroke="#D9D9D6" stroke-width="0.5" fill="none"></path>
                            <path d="M99.1538462,61.7692308 C99.1538462,61.0088103 98.8760044,60.350764 98.3203125,59.7950721 C97.7646206,59.2393802 97.1065743,58.9615385 96.3461538,58.9615385 C95.5857334,58.9615385 94.9276871,59.2393802 94.3719952,59.7950721 C93.8163033,60.350764 93.5384615,61.0088103 93.5384615,61.7692308 C93.5384615,62.5296512 93.8163033,63.1876975 94.3719952,63.7433894 C94.9276871,64.2990813 95.5857334,64.5769231 96.3461538,64.5769231 C97.1065743,64.5769231 97.7646206,64.2990813 98.3203125,63.7433894 C98.8760044,63.1876975 99.1538462,62.5296512 99.1538462,61.7692308 L99.1538462,61.7692308 Z M110.384615,61.7692308 C110.384615,61.0088103 110.106774,60.350764 109.551082,59.7950721 C108.99539,59.2393802 108.337344,58.9615385 107.576923,58.9615385 C106.816503,58.9615385 106.158456,59.2393802 105.602764,59.7950721 C105.047073,60.350764 104.769231,61.0088103 104.769231,61.7692308 C104.769231,62.5296512 105.047073,63.1876975 105.602764,63.7433894 C106.158456,64.2990813 106.816503,64.5769231 107.576923,64.5769231 C108.337344,64.5769231 108.99539,64.2990813 109.551082,63.7433894 C110.106774,63.1876975 110.384615,62.5296512 110.384615,61.7692308 L110.384615,61.7692308 Z M116,51.9423077 L116,65.9807692 C116,67.1506469 115.590549,68.145028 114.771635,68.9639423 C113.95272,69.7828567 112.958339,70.1923077 111.788462,70.1923077 L47.2115385,70.1923077 C46.0416608,70.1923077 45.0472797,69.7828567 44.2283654,68.9639423 C43.409451,68.145028 43,67.1506469 43,65.9807692 L43,51.9423077 C43,50.77243 43.409451,49.778049 44.2283654,48.9591346 C45.0472797,48.1402203 46.0416608,47.7307692 47.2115385,47.7307692 L65.9441106,47.7307692 C66.5582963,49.3685979 67.5892355,50.713937 69.0369591,51.7668269 C70.4846827,52.8197168 72.100552,53.3461538 73.8846154,53.3461538 L85.1153846,53.3461538 C86.899448,53.3461538 88.5153173,52.8197168 89.9630409,51.7668269 C91.4107645,50.713937 92.4417037,49.3685979 93.0558894,47.7307692 L111.788462,47.7307692 C112.958339,47.7307692 113.95272,48.1402203 114.771635,48.9591346 C115.590549,49.778049 116,50.77243 116,51.9423077 L116,51.9423077 Z M101.742188,23.5144231 C101.24499,24.6843007 100.382218,25.2692308 99.1538462,25.2692308 L87.9230769,25.2692308 L87.9230769,44.9230769 C87.9230769,45.6834974 87.6452352,46.3415437 87.0895433,46.8972356 C86.5338514,47.4529275 85.8758051,47.7307692 85.1153846,47.7307692 L73.8846154,47.7307692 C73.1241949,47.7307692 72.4661486,47.4529275 71.9104567,46.8972356 C71.3547648,46.3415437 71.0769231,45.6834974 71.0769231,44.9230769 L71.0769231,25.2692308 L59.8461538,25.2692308 C58.6177823,25.2692308 57.7550105,24.6843007 57.2578125,23.5144231 C56.7606145,22.3737924 56.96534,21.364788 57.8719952,20.4873798 L77.5258413,0.833533654 C78.0522863,0.277841773 78.7103326,0 79.5,0 C80.2896674,0 80.9477137,0.277841773 81.4741587,0.833533654 L101.128005,20.4873798 C102.03466,21.364788 102.239385,22.3737924 101.742188,23.5144231 L101.742188,23.5144231 Z" id="" stroke="none" fill="#239F85" fill-rule="evenodd"></path>
                            <path d="M39.6204186,81.212 L38.2113953,81.212 C37.7423488,81.212 37.6312093,81.1286316 37.6312093,80.6265263 L37.6312093,79.1277895 C37.6312093,78.6275789 37.7423488,78.5423158 38.2113953,78.5423158 L44.8402093,78.5423158 C45.3092558,78.5423158 45.4203953,78.6275789 45.4203953,79.1277895 L45.4203953,80.6265263 C45.4203953,81.1286316 45.3092558,81.212 44.8402093,81.212 L43.3483023,81.212 L43.3483023,94.5736842 L47.3813488,94.5736842 L47.8786512,92.4364211 C47.9615349,92.0745263 47.9897907,91.9362105 48.210186,91.9362105 C48.3476977,91.9362105 48.487093,91.9911579 48.6246047,92.0195789 L50.4480465,92.408 C50.8342093,92.4913684 50.9434651,92.5463158 50.9434651,92.768 C50.9434651,92.8797895 50.917093,93.02 50.8888372,93.1317895 L50.0053721,97.0766316 C49.9224884,97.4915789 49.8113488,97.5749474 49.3969302,97.5749474 L38.2113953,97.5749474 C37.7423488,97.5749474 37.6312093,97.4915789 37.6312093,96.9913684 L37.6312093,95.4926316 C37.6312093,94.9924211 37.7423488,94.9071579 38.2113953,94.9071579 L39.6204186,94.9071579 L39.6204186,81.212" id="Fill-12" stroke="none" fill="#115E67" fill-rule="evenodd"></path>
                            <path d="M60.3394651,96.9913684 C60.3394651,97.4915789 60.2283256,97.5749474 59.7592791,97.5749474 L53.2114651,97.5749474 C52.7424186,97.5749474 52.6312791,97.4915789 52.6312791,96.9913684 L52.6312791,95.4926316 C52.6312791,94.9924211 52.7424186,94.9071579 53.2114651,94.9071579 L54.6204884,94.9071579 L54.6204884,81.212 L53.2114651,81.212 C52.7424186,81.212 52.6312791,81.1286316 52.6312791,80.6265263 L52.6312791,79.1277895 C52.6312791,78.6275789 52.7424186,78.5423158 53.2114651,78.5423158 L59.7592791,78.5423158 C60.2283256,78.5423158 60.3394651,78.6275789 60.3394651,79.1277895 L60.3394651,80.6265263 C60.3394651,81.1286316 60.2283256,81.212 59.7592791,81.212 L58.3502558,81.212 L58.3502558,94.9071579 L59.7592791,94.9071579 C60.2283256,94.9071579 60.3394651,94.9924211 60.3394651,95.4926316 L60.3394651,96.9913684" id="Fill-13" stroke="none" fill="#115E67" fill-rule="evenodd"></path>
                            <path d="M74.3185581,97.0766316 C74.2055349,97.5484211 74.1791628,97.5749474 73.7082326,97.5749474 L63.2950233,97.5749474 C62.9088605,97.5749474 62.8259767,97.4915789 62.8259767,97.1012632 L62.8259767,94.7972632 L70.5322791,81.5435789 L66.0866977,81.5435789 L66.0866977,83.7661053 C66.0866977,84.1564211 65.9755581,84.2378947 65.6157674,84.2378947 L63.5719302,84.2378947 C63.1575116,84.2378947 63.101,84.1564211 63.101,83.7661053 L63.101,79.016 C63.101,78.6275789 63.1575116,78.5423158 63.5719302,78.5423158 L73.793,78.5423158 C74.2903023,78.5423158 74.373186,78.6275789 74.373186,79.0974737 L74.373186,81.6004211 L66.7761395,94.5736842 L71.720907,94.5736842 L72.2182093,92.3530526 C72.2728372,91.9911579 72.4103488,91.9362105 72.5497442,91.9362105 C72.578,91.9362105 72.8530233,91.9911579 72.8530233,91.9911579 L74.8704884,92.4364211 C75.1172558,92.4913684 75.2566512,92.5747368 75.2566512,92.768 C75.2566512,92.8797895 75.2001395,92.9896842 75.2001395,93.1014737 L74.3185581,97.0766316" id="Fill-14" stroke="none" fill="#115E67" fill-rule="evenodd"></path>
                            <path d="M85.0369302,85.2117895 C84.7336512,84.128 84.5678837,82.4890526 84.4303721,81.3218947 L84.3738605,81.3218947 C84.2646047,82.4890526 84.0159535,84.1014737 83.7409302,85.2117895 L82.5240465,89.9903158 L86.1709302,89.9903158 L85.0369302,85.2117895 L85.0369302,85.2117895 Z M92.9372558,96.9913684 C92.9372558,97.4915789 92.828,97.5749474 92.3570698,97.5749474 L86.6117209,97.5749474 C86.1426744,97.5749474 86.0315349,97.4915789 86.0315349,96.9913684 L86.0315349,95.4926316 C86.0315349,94.9924211 86.1426744,94.9071579 86.6117209,94.9071579 L87.4970698,94.9071579 L86.8603721,92.4913684 L82.1096279,92.4913684 L81.5030698,94.9071579 L82.412907,94.9071579 C82.8819535,94.9071579 82.993093,94.9924211 82.993093,95.4926316 L82.993093,96.9913684 C82.993093,97.4915789 82.8819535,97.5749474 82.412907,97.5749474 L76.9444651,97.5749474 C76.4754186,97.5749474 76.3642791,97.4915789 76.3642791,96.9913684 L76.3642791,95.4926316 C76.3642791,94.9924211 76.4754186,94.9071579 76.9444651,94.9071579 L77.7733023,94.9071579 L82.6069302,78.9875789 C82.7180698,78.5991579 82.7444419,78.5423158 83.2134884,78.5423158 L86.0880465,78.5423158 C86.5288372,78.5423158 86.5834651,78.5991579 86.6946047,78.9875789 L91.4189767,94.9071579 L92.3570698,94.9071579 C92.828,94.9071579 92.9372558,94.9924211 92.9372558,95.4926316 L92.9372558,96.9913684 L92.9372558,96.9913684 Z" id="Fill-15" stroke="none" fill="#115E67" fill-rule="evenodd"></path>
                            <path d="M100.924233,86.7957895 C102.719419,86.7957895 104.237698,86.5172632 104.237698,83.9612632 C104.237698,81.5435789 102.662907,81.4621053 101.227512,81.4621053 L100.206535,81.4621053 L100.206535,86.7957895 L100.924233,86.7957895 L100.924233,86.7957895 Z M110.011302,96.9913684 C110.011302,97.4915789 109.900163,97.5749474 109.431116,97.5749474 L105.895372,97.5749474 C105.454581,97.5749474 105.454581,97.5484211 105.260558,97.1865263 L101.530791,89.7117895 L100.206535,89.7117895 L100.206535,94.9071579 L101.504419,94.9071579 C101.973465,94.9071579 102.084605,94.9924211 102.084605,95.4926316 L102.084605,96.9913684 C102.084605,97.4915789 101.973465,97.5749474 101.504419,97.5749474 L95.0677442,97.5749474 C94.5986977,97.5749474 94.4894419,97.4915789 94.4894419,96.9913684 L94.4894419,95.4926316 C94.4894419,94.9924211 94.5986977,94.9071579 95.0677442,94.9071579 L96.4767674,94.9071579 L96.4767674,81.212 L95.0677442,81.212 C94.5986977,81.212 94.4894419,81.1286316 94.4894419,80.6265263 L94.4894419,79.1277895 C94.4894419,78.6275789 94.5986977,78.5423158 95.0677442,78.5423158 L101.530791,78.5423158 C103.659395,78.5423158 107.967465,78.6844211 107.967465,83.9063158 C107.967465,87.4911579 105.840744,88.5181053 104.817884,89.0448421 L108.161488,94.9071579 L109.431116,94.9071579 C109.900163,94.9071579 110.011302,94.9924211 110.011302,95.4926316 L110.011302,96.9913684 L110.011302,96.9913684 Z" id="Fill-16" stroke="none" fill="#115E67" fill-rule="evenodd"></path>
                            <path d="M117.830628,94.5736842 C120.953837,94.5736842 122.114209,93.2132632 122.114209,87.9061053 C122.114209,82.9343158 120.925581,81.5435789 117.830628,81.5435789 L116.783279,81.5435789 L116.783279,94.5736842 L117.830628,94.5736842 L117.830628,94.5736842 Z M117.996395,78.5423158 C123.272698,78.5423158 126.036116,80.2684211 126.036116,87.9610526 C126.036116,95.936 122.831907,97.5749474 117.915395,97.5749474 L111.644488,97.5749474 C111.175442,97.5749474 111.064302,97.4650526 111.064302,96.9913684 L111.064302,95.4926316 C111.064302,94.9924211 111.175442,94.9071579 111.644488,94.9071579 L113.053512,94.9071579 L113.053512,81.212 L111.644488,81.212 C111.175442,81.212 111.064302,81.1286316 111.064302,80.6265263 L111.064302,79.1277895 C111.064302,78.6275789 111.175442,78.5423158 111.672744,78.5423158 L117.996395,78.5423158 L117.996395,78.5423158 Z" id="Fill-17" stroke="none" fill="#115E67" fill-rule="evenodd"></path>
                            <path d="M174.747256,73.4909474 C175.059953,73.3734737 176.001814,72.3067368 174.314,72.1494737 C172.358698,71.9675789 170.898814,72.3067368 170.663349,73.2162105 C170.427884,74.1237895 171.292512,74.2810526 172.705302,73.8471579 M175.372651,79.8496842 C175.372651,79.8496842 176.75907,79.1126316 176.866442,80.0050526 C176.985116,80.9922105 175.291651,82.4663158 174.353558,82.7694737 C173.136674,83.1654737 172.194814,82.0589474 173.45314,80.9524211" id="Stroke-18" stroke="#EFEFF0" stroke-width="0.1" stroke-linecap="round" stroke-linejoin="round" fill="none"></path>
                        </g>
                    </g>
                </g>
                <path d="M82.8005049,165.796632 C128.529961,165.796632 165.60101,128.681792 165.60101,82.8983162 C165.60101,37.1148404 128.529961,0 82.8005049,0 C37.0710488,0 0,37.1148404 0,82.8983162 C0,128.681792 37.0710488,165.796632 82.8005049,165.796632 Z M82.8005049,159.003014 C124.782376,159.003014 158.815407,124.92978 158.815407,82.8983162 C158.815407,40.866852 124.782376,6.79361811 82.8005049,6.79361811 C40.8186335,6.79361811 6.78560235,40.866852 6.78560235,82.8983162 C6.78560235,124.92978 40.8186335,159.003014 82.8005049,159.003014 Z" id="Mask" stroke="#FFFFFF" fill="#FFFFFF" sketch:type="MSShapeGroup"></path>
            </g>
        </g>
    </g>
</svg>