<?xml version="1.0" encoding="UTF-8"?>
<svg width="200px" height="200px" viewBox="0 0 200 200" version="1.1" xmlns="http://www.w3.org/2000/svg" xmlns:xlink="http://www.w3.org/1999/xlink" xmlns:sketch="http://www.bohemiancoding.com/sketch/ns">
    <!-- Generator: Sketch 3.5.1 (25234) - http://www.bohemiancoding.com/sketch -->
    <title>lizard@3x</title>
    <desc>Created with Sketch.</desc>
    <defs>
        <linearGradient x1="50%" y1="0%" x2="50%" y2="100%" id="linearGradient-1">
            <stop stop-color="#FFFFFF" offset="0%"></stop>
            <stop stop-color="#ECECEC" offset="100%"></stop>
        </linearGradient>
        <path id="path-2" d="M77.8205204,155.428371 C120.577612,155.428371 155.239082,120.725955 155.239082,77.9183553 C155.239082,35.1107558 120.577612,0.408339732 77.8205204,0.408339732 C35.0634293,0.408339732 0.401958461,35.1107558 0.401958461,77.9183553 C0.401958461,120.725955 35.0634293,155.428371 77.8205204,155.428371 Z"></path>
    </defs>
    <g id="All" stroke="none" stroke-width="1" fill="none" fill-rule="evenodd" sketch:type="MSPage">
        <g id="All-logos" sketch:type="MSArtboardGroup" transform="translate(-1000.000000, -668.000000)">
            <g id="titles" sketch:type="MSLayerGroup" transform="translate(64.000000, 259.000000)"></g>
            <g id="logo-lizard" sketch:type="MSLayerGroup" transform="translate(1017.000000, 684.000000)">
                <g id="LogoLizard_def_rgb" transform="translate(5.000000, 5.000000)">
                    <mask id="mask-3" sketch:name="Mask" fill="white">
                        <use xlink:href="#path-2"></use>
                    </mask>
                    <use id="Mask" fill="url(#linearGradient-1)" sketch:type="MSShapeGroup" xlink:href="#path-2"></use>
                    <g mask="url(#mask-3)" sketch:type="MSShapeGroup">
                        <g transform="translate(-3.000000, 23.000000)">
                            <path d="M75.2263953,52.8181053 L85.9052093,52.8181053 L155.322209,52.8181053 C158.260814,52.8181053 160.662558,55.2357895 160.662558,58.1896842 L160.662558,101.154737 C160.662558,104.110526 158.260814,106.526316 155.322209,106.526316 L5.80939535,106.526316 C2.87267442,106.526316 0.470930233,104.110526 0.470930233,101.154737 L0.470930233,58.1896842 C0.470930233,55.2357895 2.87267442,52.8181053 5.80939535,52.8181053 L75.2263953,52.8181053" id="Fill-4" stroke="none" fill="#D9D9D6" fill-rule="evenodd"></path>
                            <path d="M160.662558,47.5414737 L152.662558,87.4218947 L6.47093023,87.4218947 L0.470930233,47.5414737 C0.470930233,47.5414737 28.6231395,41.2130526 80.5667442,41.2130526 C132.508465,41.2130526 160.662558,47.5414737 160.662558,47.5414737 Z" id="Fill-7" stroke="none" fill="#D9D9D6" fill-rule="evenodd"></path>
                            <path d="M80.5667442,41.2130526 C132.508465,41.2130526 160.662558,47.5414737 160.662558,47.5414737 L160.662558,87.4218947 L0.470930233,87.4218947 L0.470930233,47.5414737 C0.470930233,47.5414737 28.6231395,41.2130526 80.5667442,41.2130526 L80.5667442,41.2130526 Z" id="Stroke-8" stroke="#D9D9D6" stroke-width="0.5" fill="none"></path>
                            <path d="M112.490977,42.4762105 C112.873372,43.5410526 112.590814,44.7252632 111.761977,46.3869474 C110.317163,49.2972632 107.421884,52.0711579 105.327186,53.2307368 C104.65093,53.604 102.921674,54.4926316 100.459651,53.7555789 C98.8076279,53.2610526 97.2158837,53.5471579 96.3795116,54.3884211 C95.5412558,55.2296842 95.0194651,55.7583158 94.2358372,56.232 C93.4484419,56.7056842 91.5647209,57.2305263 90.6228605,58.1778947 C89.681,59.1252632 89.681,60.0214737 90.7547209,60.5197895 C92.1373721,61.164 93.1282093,61.8745263 92.2447442,63.0435789 C91.6702093,63.8109474 90.7547209,63.5987368 90.0483256,62.9658947 C89.3419302,62.3330526 88.4000698,61.5448421 88.4773023,62.1776842 C88.5583023,62.8067368 89.1836977,64.0591579 88.8446279,64.9136842 C88.5300465,65.7056842 87.851907,66.2816842 87.2227442,65.808 C86.5069302,65.268 87.1172558,63.1250526 86.4899767,63.4395789 C85.860814,63.756 83.977093,65.232 83.5325349,64.7829474 C82.8600465,64.1027368 83.2857674,62.7896842 84.2389302,62.1776842 C86.1226512,60.9688421 84.4480233,60.9138947 83.5061628,61.0711579 C82.5643023,61.2303158 82.1856744,59.436 83.2970698,59.0741053 C85.3898837,58.3882105 86.5935814,58.6515789 86.2281395,56.3343158 C86.0680233,55.3244211 84.7833256,54.4130526 83.0616047,54.7541053 C79.6351163,55.44 74.6376047,52.704 72.833,50.4928421 C70.3314186,47.4290526 69.7983256,44.7821053 68.6982326,44.8616842 C67.6000233,44.9412632 66.9463721,46.2296842 65.9253953,46.3869474 C64.9044186,46.5461053 63.126186,45.8886316 62.1052093,44.5452632 C61.0861163,43.2037895 60.9542558,41.7562105 59.8560465,42.0726316 C58.7578372,42.3871579 58.6523488,44.2553684 57.6313721,44.2553684 C56.6122791,44.2553684 55.8267674,43.6225263 56.4540465,42.5178947 C57.0832093,41.4132632 59.306,40.2555789 57.186814,40.1778947 C55.0676279,40.0983158 54.7662326,39.852 54.9640233,38.808 C55.094,38.124 56.1922093,37.5461053 57.1340698,37.7033684 C58.0759302,37.8606316 58.887814,37.6237895 58.2605349,36.9909474 C57.6313721,36.36 55.094,34.9143158 56.8741163,34.2833684 C58.2812558,33.7831579 59.4378605,35.6494737 59.7505581,34.8593684 C60.0651395,34.0711579 59.5942093,32.2294737 61.007,32.2825263 C61.8659767,32.3147368 63.0206977,33.4932632 62.7852326,34.9143158 C62.5497674,36.3353684 62.5252791,38.6507368 64.2507674,38.0197895 C65.9781395,37.3869474 66.8936279,36.2804211 66.8936279,33.9915789 C66.8936279,31.7027368 66.0817442,29.7568421 66.1872326,26.8067368 C66.2267907,25.7570526 66.2399767,22.3086316 68.7509767,20.0197895 C71.2619767,17.7290526 73.1720698,14.4132632 73.4866512,12.7572632 C73.8012326,11.0993684 73.8012326,8.73094737 71.2883488,6.59936842 C68.7773488,4.46778947 66.0045116,2.94063158 63.3616512,2.75684211 C60.9919302,2.59010526 58.4564419,2.62042105 55.8795116,4.01873684 C53.6717907,5.21810526 51.8502326,6.91578947 49.599186,9.75789474 C46.1293721,14.1423158 47.6382326,18.6574737 47.6457674,19.5461053 C47.6457674,19.5461053 47.6363488,20.0349474 47.5346279,19.5991579 C47.2162791,18.2368421 46.5682791,15.2204211 46.9845814,13.3882105 C47.2313488,12.3082105 48.1204651,9.27094737 51.5883953,5.96652632 C55.0695116,2.65263158 58.8369535,1.86252632 62.2125814,1.78294737 C64.9044186,1.72042105 69.6137209,3.38778947 72.0738605,5.72968421 C75.8601395,9.33347368 76.7040465,13.3086316 73.4075349,17.4126316 C70.1110233,21.5185263 69.2482791,24.1768421 69.4046279,28.8606316 C69.559093,33.4383158 74.4567674,40.0187368 78.145093,43.2037895 C81.5565116,46.1482105 85.4332093,48.5166316 91.591093,49.0983158 C97.713186,49.6781053 101.508884,47.9671579 104.724395,46.7014737 C107.248581,45.7143158 110.946326,43.3307368 112.425047,42.3492632 L112.490977,42.4762105" id="Fill-10" stroke="none" fill="#7FA9AE" fill-rule="evenodd"></path>
                            <path d="M47.5723023,19.7696842 C47.2746744,18.5286316 46.5456744,15.3170526 46.9845814,13.3882105 C47.2313488,12.3082105 48.1204651,9.27094737 51.5883953,5.96652632 C55.0695116,2.65263158 58.8369535,1.86252632 62.2125814,1.78294737 C64.9044186,1.72042105 69.6137209,3.38778947 72.0738605,5.72968421 C75.8601395,9.33347368 76.7040465,13.3086316 73.4075349,17.4126316 C70.1110233,21.5185263 69.2482791,24.1768421 69.4046279,28.8606316 C69.559093,33.4383158 74.4567674,40.0187368 78.145093,43.2037895 C81.5565116,46.1482105 85.4332093,48.5166316 91.591093,49.0983158 C97.713186,49.6781053 101.508884,47.9671579 104.724395,46.7014737 C107.943674,45.4395789 112.425047,42.3492632 112.425047,42.3492632 C112.425047,42.3492632 111.803419,41.2938947 111.343791,40.8618947 C109.669163,39.2816842 105.067233,39.5450526 102.840674,39.4389474 C100.953186,39.3498947 98.4986977,39.7307368 97.1631395,40.4412632 C95.8294651,41.1517895 94.2471395,42.3113684 92.8230465,41.3355789 C91.6702093,40.5454737 92.1938837,38.5465263 93.4484419,38.2301053 C94.8028372,37.8890526 97.5794419,39.0694737 97.9486512,38.2301053 C98.1577442,37.7564211 97.686814,37.3869474 96.5904884,37.0724211 C95.5751628,36.7806316 95.9613256,35.3349474 97.6604419,35.2553684 C99.3388372,35.1776842 100.926814,34.7286316 100.644256,33.5974737 C100.459651,32.8623158 98.5759302,33.5974737 97.3741163,33.9669474 C95.6448605,34.4955789 96.370093,32.9248421 96.9540465,31.7804211 C97.4249767,30.8614737 96.4831163,30.3877895 95.6994884,30.4938947 C94.3959535,30.6682105 94.5918605,32.3242105 93.893,32.8869474 C92.5612093,33.9669474 91.6702093,31.5454737 90.8319535,31.8618947 C89.4606047,32.3810526 91.0410465,33.6505263 91.5383488,34.3856842 C92.1524419,35.2970526 90.1255581,36.0454737 88.4773023,36.756 C86.8290465,37.4665263 86.8836744,39.7591579 86.9872791,40.86 C87.0645116,41.7031579 85.6008605,41.4928421 83.768,40.1248421 C81.6638837,38.5503158 83.3008372,37.2258947 84.3444186,36.9663158 C86.6726977,36.3884211 87.0381395,35.0715789 87.588186,34.1242105 C88.1382326,33.1768421 87.1850698,30.8122105 87.9027674,29.7037895 C88.6863953,28.4930526 89.681,28.9932632 90.781093,29.0728421 C91.881186,29.1505263 93.083,29.2793684 93.3448372,28.4646316 C93.6575349,27.4926316 92.7608837,27.6991579 91.0410465,27.4926316 C89.7356279,27.3353684 90.153814,25.8082105 91.0674186,25.0711579 C92.1599767,24.1938947 92.5084651,22.7557895 91.7229535,22.3351579 C90.7113953,21.7932632 89.5001628,24.0442105 88.4000698,25.0711579 C87.2999767,26.0962105 86.8912093,24.588 87.0645116,23.4909474 C87.3282326,21.8614737 86.6463256,21.2305263 85.8099535,21.1244211 C83.768,20.8686316 84.3180465,23.2294737 84.3971628,24.0195789 C84.4743953,24.8096842 84.2916744,25.4141053 83.1934651,25.02 C82.0933721,24.624 80.9612558,24.0972632 80.7352093,25.1242105 C80.5242326,26.0734737 82.6528372,26.6892632 83.977093,27.756 C85.2881628,28.8094737 84.4046977,32.2522105 82.8261395,32.5989474 C81.1515116,32.9665263 80.6297209,31.3503158 77.645907,31.2821053 C75.344,31.2290526 74.1930465,29.8610526 73.9312093,28.4930526 C73.4489767,25.9692632 77.2277209,23.4397895 78.746,21.3877895 C80.2548605,19.3471579 82.3815814,14.6652632 78.5877674,9.072 C75.4494884,4.44126316 71.9175116,2.23010526 67.9146047,0.966315789 C63.9116977,-0.295578947 58.1173721,-0.147789474 54.4139767,1.78294737 C50.1756047,3.99410526 47.9264419,7.704 46.8263488,11.4934737 C45.8524651,14.8547368 47.5723023,19.7696842 47.5723023,19.7696842" id="Fill-11" stroke="none" fill="#115E67" fill-rule="evenodd"></path>
                            <path d="M39.6204186,79.212 L38.2113953,79.212 C37.7423488,79.212 37.6312093,79.1286316 37.6312093,78.6265263 L37.6312093,77.1277895 C37.6312093,76.6275789 37.7423488,76.5423158 38.2113953,76.5423158 L44.8402093,76.5423158 C45.3092558,76.5423158 45.4203953,76.6275789 45.4203953,77.1277895 L45.4203953,78.6265263 C45.4203953,79.1286316 45.3092558,79.212 44.8402093,79.212 L43.3483023,79.212 L43.3483023,92.5736842 L47.3813488,92.5736842 L47.8786512,90.4364211 C47.9615349,90.0745263 47.9897907,89.9362105 48.210186,89.9362105 C48.3476977,89.9362105 48.487093,89.9911579 48.6246047,90.0195789 L50.4480465,90.408 C50.8342093,90.4913684 50.9434651,90.5463158 50.9434651,90.768 C50.9434651,90.8797895 50.917093,91.02 50.8888372,91.1317895 L50.0053721,95.0766316 C49.9224884,95.4915789 49.8113488,95.5749474 49.3969302,95.5749474 L38.2113953,95.5749474 C37.7423488,95.5749474 37.6312093,95.4915789 37.6312093,94.9913684 L37.6312093,93.4926316 C37.6312093,92.9924211 37.7423488,92.9071579 38.2113953,92.9071579 L39.6204186,92.9071579 L39.6204186,79.212" id="Fill-12" stroke="none" fill="#115E67" fill-rule="evenodd"></path>
                            <path d="M60.3394651,94.9913684 C60.3394651,95.4915789 60.2283256,95.5749474 59.7592791,95.5749474 L53.2114651,95.5749474 C52.7424186,95.5749474 52.6312791,95.4915789 52.6312791,94.9913684 L52.6312791,93.4926316 C52.6312791,92.9924211 52.7424186,92.9071579 53.2114651,92.9071579 L54.6204884,92.9071579 L54.6204884,79.212 L53.2114651,79.212 C52.7424186,79.212 52.6312791,79.1286316 52.6312791,78.6265263 L52.6312791,77.1277895 C52.6312791,76.6275789 52.7424186,76.5423158 53.2114651,76.5423158 L59.7592791,76.5423158 C60.2283256,76.5423158 60.3394651,76.6275789 60.3394651,77.1277895 L60.3394651,78.6265263 C60.3394651,79.1286316 60.2283256,79.212 59.7592791,79.212 L58.3502558,79.212 L58.3502558,92.9071579 L59.7592791,92.9071579 C60.2283256,92.9071579 60.3394651,92.9924211 60.3394651,93.4926316 L60.3394651,94.9913684" id="Fill-13" stroke="none" fill="#115E67" fill-rule="evenodd"></path>
                            <path d="M74.3185581,95.0766316 C74.2055349,95.5484211 74.1791628,95.5749474 73.7082326,95.5749474 L63.2950233,95.5749474 C62.9088605,95.5749474 62.8259767,95.4915789 62.8259767,95.1012632 L62.8259767,92.7972632 L70.5322791,79.5435789 L66.0866977,79.5435789 L66.0866977,81.7661053 C66.0866977,82.1564211 65.9755581,82.2378947 65.6157674,82.2378947 L63.5719302,82.2378947 C63.1575116,82.2378947 63.101,82.1564211 63.101,81.7661053 L63.101,77.016 C63.101,76.6275789 63.1575116,76.5423158 63.5719302,76.5423158 L73.793,76.5423158 C74.2903023,76.5423158 74.373186,76.6275789 74.373186,77.0974737 L74.373186,79.6004211 L66.7761395,92.5736842 L71.720907,92.5736842 L72.2182093,90.3530526 C72.2728372,89.9911579 72.4103488,89.9362105 72.5497442,89.9362105 C72.578,89.9362105 72.8530233,89.9911579 72.8530233,89.9911579 L74.8704884,90.4364211 C75.1172558,90.4913684 75.2566512,90.5747368 75.2566512,90.768 C75.2566512,90.8797895 75.2001395,90.9896842 75.2001395,91.1014737 L74.3185581,95.0766316" id="Fill-14" stroke="none" fill="#115E67" fill-rule="evenodd"></path>
                            <path d="M85.0369302,83.2117895 C84.7336512,82.128 84.5678837,80.4890526 84.4303721,79.3218947 L84.3738605,79.3218947 C84.2646047,80.4890526 84.0159535,82.1014737 83.7409302,83.2117895 L82.5240465,87.9903158 L86.1709302,87.9903158 L85.0369302,83.2117895 L85.0369302,83.2117895 Z M92.9372558,94.9913684 C92.9372558,95.4915789 92.828,95.5749474 92.3570698,95.5749474 L86.6117209,95.5749474 C86.1426744,95.5749474 86.0315349,95.4915789 86.0315349,94.9913684 L86.0315349,93.4926316 C86.0315349,92.9924211 86.1426744,92.9071579 86.6117209,92.9071579 L87.4970698,92.9071579 L86.8603721,90.4913684 L82.1096279,90.4913684 L81.5030698,92.9071579 L82.412907,92.9071579 C82.8819535,92.9071579 82.993093,92.9924211 82.993093,93.4926316 L82.993093,94.9913684 C82.993093,95.4915789 82.8819535,95.5749474 82.412907,95.5749474 L76.9444651,95.5749474 C76.4754186,95.5749474 76.3642791,95.4915789 76.3642791,94.9913684 L76.3642791,93.4926316 C76.3642791,92.9924211 76.4754186,92.9071579 76.9444651,92.9071579 L77.7733023,92.9071579 L82.6069302,76.9875789 C82.7180698,76.5991579 82.7444419,76.5423158 83.2134884,76.5423158 L86.0880465,76.5423158 C86.5288372,76.5423158 86.5834651,76.5991579 86.6946047,76.9875789 L91.4189767,92.9071579 L92.3570698,92.9071579 C92.828,92.9071579 92.9372558,92.9924211 92.9372558,93.4926316 L92.9372558,94.9913684 L92.9372558,94.9913684 Z" id="Fill-15" stroke="none" fill="#115E67" fill-rule="evenodd"></path>
                            <path d="M100.924233,84.7957895 C102.719419,84.7957895 104.237698,84.5172632 104.237698,81.9612632 C104.237698,79.5435789 102.662907,79.4621053 101.227512,79.4621053 L100.206535,79.4621053 L100.206535,84.7957895 L100.924233,84.7957895 L100.924233,84.7957895 Z M110.011302,94.9913684 C110.011302,95.4915789 109.900163,95.5749474 109.431116,95.5749474 L105.895372,95.5749474 C105.454581,95.5749474 105.454581,95.5484211 105.260558,95.1865263 L101.530791,87.7117895 L100.206535,87.7117895 L100.206535,92.9071579 L101.504419,92.9071579 C101.973465,92.9071579 102.084605,92.9924211 102.084605,93.4926316 L102.084605,94.9913684 C102.084605,95.4915789 101.973465,95.5749474 101.504419,95.5749474 L95.0677442,95.5749474 C94.5986977,95.5749474 94.4894419,95.4915789 94.4894419,94.9913684 L94.4894419,93.4926316 C94.4894419,92.9924211 94.5986977,92.9071579 95.0677442,92.9071579 L96.4767674,92.9071579 L96.4767674,79.212 L95.0677442,79.212 C94.5986977,79.212 94.4894419,79.1286316 94.4894419,78.6265263 L94.4894419,77.1277895 C94.4894419,76.6275789 94.5986977,76.5423158 95.0677442,76.5423158 L101.530791,76.5423158 C103.659395,76.5423158 107.967465,76.6844211 107.967465,81.9063158 C107.967465,85.4911579 105.840744,86.5181053 104.817884,87.0448421 L108.161488,92.9071579 L109.431116,92.9071579 C109.900163,92.9071579 110.011302,92.9924211 110.011302,93.4926316 L110.011302,94.9913684 L110.011302,94.9913684 Z" id="Fill-16" stroke="none" fill="#115E67" fill-rule="evenodd"></path>
                            <path d="M117.830628,92.5736842 C120.953837,92.5736842 122.114209,91.2132632 122.114209,85.9061053 C122.114209,80.9343158 120.925581,79.5435789 117.830628,79.5435789 L116.783279,79.5435789 L116.783279,92.5736842 L117.830628,92.5736842 L117.830628,92.5736842 Z M117.996395,76.5423158 C123.272698,76.5423158 126.036116,78.2684211 126.036116,85.9610526 C126.036116,93.936 122.831907,95.5749474 117.915395,95.5749474 L111.644488,95.5749474 C111.175442,95.5749474 111.064302,95.4650526 111.064302,94.9913684 L111.064302,93.4926316 C111.064302,92.9924211 111.175442,92.9071579 111.644488,92.9071579 L113.053512,92.9071579 L113.053512,79.212 L111.644488,79.212 C111.175442,79.212 111.064302,79.1286316 111.064302,78.6265263 L111.064302,77.1277895 C111.064302,76.6275789 111.175442,76.5423158 111.672744,76.5423158 L117.996395,76.5423158 L117.996395,76.5423158 Z" id="Fill-17" stroke="none" fill="#115E67" fill-rule="evenodd"></path>
                            <path d="M174.747256,71.4909474 C175.059953,71.3734737 176.001814,70.3067368 174.314,70.1494737 C172.358698,69.9675789 170.898814,70.3067368 170.663349,71.2162105 C170.427884,72.1237895 171.292512,72.2810526 172.705302,71.8471579 M175.372651,77.8496842 C175.372651,77.8496842 176.75907,77.1126316 176.866442,78.0050526 C176.985116,78.9922105 175.291651,80.4663158 174.353558,80.7694737 C173.136674,81.1654737 172.194814,80.0589474 173.45314,78.9524211" id="Stroke-18" stroke="#EFEFF0" stroke-width="0.1" stroke-linecap="round" stroke-linejoin="round" fill="none"></path>
                        </g>
                    </g>
                </g>
                <path d="M82.8005049,165.796632 C128.529961,165.796632 165.60101,128.681792 165.60101,82.8983162 C165.60101,37.1148404 128.529961,0 82.8005049,0 C37.0710488,0 0,37.1148404 0,82.8983162 C0,128.681792 37.0710488,165.796632 82.8005049,165.796632 Z M82.8005049,159.003014 C124.782376,159.003014 158.815407,124.92978 158.815407,82.8983162 C158.815407,40.866852 124.782376,6.79361811 82.8005049,6.79361811 C40.8186335,6.79361811 6.78560235,40.866852 6.78560235,82.8983162 C6.78560235,124.92978 40.8186335,159.003014 82.8005049,159.003014 Z" id="Mask" stroke="#FFFFFF" fill="#FFFFFF" sketch:type="MSShapeGroup"></path>
            </g>
        </g>
    </g>
</svg>