<?xml version="1.0" encoding="UTF-8"?>
<svg width="200px" height="200px" viewBox="0 0 200 200" version="1.1" xmlns="http://www.w3.org/2000/svg" xmlns:xlink="http://www.w3.org/1999/xlink" xmlns:sketch="http://www.bohemiancoding.com/sketch/ns">
    <!-- Generator: Sketch 3.5.1 (25234) - http://www.bohemiancoding.com/sketch -->
    <title>rapportage@3x</title>
    <desc>Created with Sketch.</desc>
    <defs>
        <radialGradient cx="50%" cy="0%" fx="50%" fy="0%" r="100%" id="radialGradient-1">
            <stop stop-color="#56BEF7" offset="0%"></stop>
            <stop stop-color="#2088F1" offset="100%"></stop>
        </radialGradient>
    </defs>
    <g id="All" stroke="none" stroke-width="1" fill="none" fill-rule="evenodd" sketch:type="MSPage">
        <g id="All-logos" sketch:type="MSArtboardGroup" transform="translate(-370.000000, -658.000000)">
            <g id="titles" sketch:type="MSLayerGroup" transform="translate(64.000000, 259.000000)"></g>
            <g id="logo-regenrapportage" sketch:type="MSLayerGroup" transform="translate(308.000000, 623.000000)">
                <g id="Group" transform="translate(75.185751, 48.265429)" sketch:type="MSShapeGroup">
                    <path d="M86.6704708,166.566616 C130.875311,166.566616 166.710414,130.762423 166.710414,86.5957121 C166.710414,42.4290017 130.875311,6.62480858 86.6704708,6.62480858 C42.4656309,6.62480858 6.63052782,42.4290017 6.63052782,86.5957121 C6.63052782,130.762423 42.4656309,166.566616 86.6704708,166.566616 Z" id="Mask" fill="url(#radialGradient-1)"></path>
                    <path d="M86.5903308,172.979246 C134.41285,172.979246 173.180662,134.256523 173.180662,86.4896232 C173.180662,38.7227233 134.41285,0 86.5903308,0 C38.7678116,0 0,38.7227233 0,86.4896232 C0,134.256523 38.7678116,172.979246 86.5903308,172.979246 Z M86.5903308,165.891316 C130.493736,165.891316 166.084478,130.341967 166.084478,86.4896232 C166.084478,42.637279 130.493736,7.08793009 86.5903308,7.08793009 C42.6869254,7.08793009 7.09618321,42.637279 7.09618321,86.4896232 C7.09618321,130.341967 42.6869254,165.891316 86.5903308,165.891316 Z" id="Mask" stroke="#FFFFFF" fill="#FFFFFF"></path>
                    <path d="M51.5315375,38.6048522 L106.73531,38.6048522 L128.15072,60.3000636 L128.15072,130.929937 L51.385067,130.929937 L51.5315375,38.6048522 Z M53.8670924,41.4245548 L105.698906,41.4245548 L125.095805,61.3213776 L125.095805,128.110234 L53.7295685,128.110234 L53.8670924,41.4245548 Z" id="Path-14" fill="#FFFFFF"></path>
                    <g id="drops" transform="translate(73.883024, 96.296325)" fill="#FFFFFF">
                        <g id="Drop" transform="translate(3.800664, 4.531570) rotate(-345.000000) translate(-3.800664, -4.531570) translate(0.981567, 0.606017)">
                            <path d="M0.0348754352,5.03639789 C0.0348754352,6.48443279 0.924199033,7.81627132 2.81328511,7.81627132 C4.70237118,7.81627132 5.59169478,6.36817825 5.59169478,5.03639789 C5.59169478,3.14631658 2.81328511,0.029078174 2.81328511,0.029078174 C2.81328511,0.029078174 0.0348754352,3.14631658 0.0348754352,5.03639789 L0.0348754352,5.03639789 Z M2.81328511,7.23464968 C1.81053775,7.23464968 0.665609797,6.80795805 0.665609797,5.08591778 C0.665609797,3.65580076 2.81328511,0.930559723 2.81328511,0.930559723 C2.81328511,0.930559723 4.96096042,3.6483885 4.96096042,5.08591778 C4.96096042,6.80795805 3.81603246,7.23464968 2.81328511,7.23464968 L2.81328511,7.23464968 Z" id="Shape"></path>
                        </g>
                        <g id="Drop" transform="translate(13.621160, 4.531570) rotate(-345.000000) translate(-13.621160, -4.531570) translate(10.802062, 0.606017)">
                            <path d="M0.0348754352,5.03639789 C0.0348754352,6.48443279 0.924199033,7.81627132 2.81328511,7.81627132 C4.70237118,7.81627132 5.59169478,6.36817825 5.59169478,5.03639789 C5.59169478,3.14631658 2.81328511,0.029078174 2.81328511,0.029078174 C2.81328511,0.029078174 0.0348754352,3.14631658 0.0348754352,5.03639789 L0.0348754352,5.03639789 Z M2.81328511,7.23464968 C1.81053775,7.23464968 0.665609797,6.80795805 0.665609797,5.08591778 C0.665609797,3.65580076 2.81328511,0.930559723 2.81328511,0.930559723 C2.81328511,0.930559723 4.96096042,3.6483885 4.96096042,5.08591778 C4.96096042,6.80795805 3.81603246,7.23464968 2.81328511,7.23464968 L2.81328511,7.23464968 Z" id="Shape"></path>
                        </g>
                        <g id="Drop" transform="translate(23.441656, 4.531570) rotate(-345.000000) translate(-23.441656, -4.531570) translate(20.622558, 0.606017)">
                            <path d="M0.0348754352,5.03639789 C0.0348754352,6.48443279 0.924199033,7.81627132 2.81328511,7.81627132 C4.70237118,7.81627132 5.59169478,6.36817825 5.59169478,5.03639789 C5.59169478,3.14631658 2.81328511,0.029078174 2.81328511,0.029078174 C2.81328511,0.029078174 0.0348754352,3.14631658 0.0348754352,5.03639789 L0.0348754352,5.03639789 Z M2.81328511,7.23464968 C1.81053775,7.23464968 0.665609797,6.80795805 0.665609797,5.08591778 C0.665609797,3.65580076 2.81328511,0.930559723 2.81328511,0.930559723 C2.81328511,0.930559723 4.96096042,3.6483885 4.96096042,5.08591778 C4.96096042,6.80795805 3.81603246,7.23464968 2.81328511,7.23464968 L2.81328511,7.23464968 Z" id="Shape"></path>
                        </g>
                        <g id="Drop" transform="translate(17.003775, 13.479594) rotate(-345.000000) translate(-17.003775, -13.479594) translate(14.184678, 9.554041)">
                            <path d="M0.0348754352,5.03639789 C0.0348754352,6.48443279 0.924199033,7.81627132 2.81328511,7.81627132 C4.70237118,7.81627132 5.59169478,6.36817825 5.59169478,5.03639789 C5.59169478,3.14631658 2.81328511,0.029078174 2.81328511,0.029078174 C2.81328511,0.029078174 0.0348754352,3.14631658 0.0348754352,5.03639789 L0.0348754352,5.03639789 Z M2.81328511,7.23464968 C1.81053775,7.23464968 0.665609797,6.80795805 0.665609797,5.08591778 C0.665609797,3.65580076 2.81328511,0.930559723 2.81328511,0.930559723 C2.81328511,0.930559723 4.96096042,3.6483885 4.96096042,5.08591778 C4.96096042,6.80795805 3.81603246,7.23464968 2.81328511,7.23464968 L2.81328511,7.23464968 Z" id="Shape"></path>
                        </g>
                        <g id="Drop" transform="translate(7.292396, 13.806961) rotate(-345.000000) translate(-7.292396, -13.806961) translate(4.473299, 9.881408)">
                            <path d="M0.0348754352,5.03639789 C0.0348754352,6.48443279 0.924199033,7.81627132 2.81328511,7.81627132 C4.70237118,7.81627132 5.59169478,6.36817825 5.59169478,5.03639789 C5.59169478,3.14631658 2.81328511,0.029078174 2.81328511,0.029078174 C2.81328511,0.029078174 0.0348754352,3.14631658 0.0348754352,5.03639789 L0.0348754352,5.03639789 Z M2.81328511,7.23464968 C1.81053775,7.23464968 0.665609797,6.80795805 0.665609797,5.08591778 C0.665609797,3.65580076 2.81328511,0.930559723 2.81328511,0.930559723 C2.81328511,0.930559723 4.96096042,3.6483885 4.96096042,5.08591778 C4.96096042,6.80795805 3.81603246,7.23464968 2.81328511,7.23464968 L2.81328511,7.23464968 Z" id="Shape"></path>
                        </g>
                    </g>
                    <path d="M105.074812,39.0963269 L105.074812,61.1458352 L126.890792,61.1458352 L124.586597,58.3563515 L107.635335,58.3563515 L107.635335,40.6827006 L105.074812,39.0963269 Z" id="Path-15" fill="#FFFFFF"></path>
                    <path d="M106.198602,74.8835798 C106.198602,69.5569595 101.758923,65.2975193 96.4277966,65.2975193 C94.4773507,65.2975193 92.8798427,65.8264694 91.2730468,66.7173327 C88.9603752,63.7013892 85.4124213,61.7526256 81.3257727,61.7526256 C74.3970459,61.7526256 68.8893582,67.2555626 68.8893582,74.178313 L68.8893582,74.8835798 C65.6942492,76.3033932 63.5580465,79.3193367 63.5580465,83.0498269 C63.5580465,88.0145339 67.4682261,91.9213408 72.4372193,91.9213408 L102.631979,91.9213408 C107.600972,91.9213408 111.511152,88.0145339 111.511152,83.0498269 C111.529728,79.3193367 109.393525,76.3033932 106.198602,74.8835798 L106.198602,74.8835798 Z M102.641267,90.148894 L72.4465071,90.148894 C68.5363275,90.148894 65.3413113,86.9566337 65.3413113,83.0498269 C65.3413113,79.68125 67.6539829,76.8416231 70.848999,76.1270765 C70.6725301,75.4125299 70.6725301,74.8835798 70.6725301,74.178313 C70.6725301,68.3227426 75.4650543,63.5250725 81.3349677,63.5250725 C85.4216162,63.5250725 89.1460391,65.8357492 90.9293039,69.3806428 C92.3503431,67.9608294 94.3007889,67.0699661 96.4369916,67.0699661 C100.876578,67.0699661 104.433913,70.6148597 104.433913,75.0598965 L104.433913,76.1270765 C107.45246,76.8323433 109.765039,79.6719701 109.765039,83.0498269 C109.746463,86.9566337 106.551447,90.148894 102.641267,90.148894 L102.641267,90.148894 Z" id="Shape" fill="#FFFFFF"></path>
                </g>
            </g>
        </g>
    </g>
</svg>