<?xml version="1.0" encoding="UTF-8"?>
<svg width="200px" height="200px" viewBox="0 0 200 200" version="1.1" xmlns="http://www.w3.org/2000/svg" xmlns:xlink="http://www.w3.org/1999/xlink" xmlns:sketch="http://www.bohemiancoding.com/sketch/ns">
    <!-- Generator: Sketch 3.5.1 (25234) - http://www.bohemiancoding.com/sketch -->
    <title>regenradar@3x</title>
    <desc>Created with Sketch.</desc>
    <defs></defs>
    <g id="All" stroke="none" stroke-width="1" fill="none" fill-rule="evenodd" sketch:type="MSPage">
        <g id="All-logos" sketch:type="MSArtboardGroup" transform="translate(-701.000000, -669.000000)">
            <g id="titles" sketch:type="MSLayerGroup" transform="translate(64.000000, 259.000000)"></g>
            <g id="logo-regenradar" sketch:type="MSLayerGroup" transform="translate(723.000000, 687.000000)">
                <g id="Layer_1" sketch:type="MSShapeGroup">
                    <path d="M81.4658176,157.839658 C39.3531785,157.839658 5.091654,123.578134 5.091654,81.4654944 C5.091654,39.3528553 39.3528553,5.091654 81.4658176,5.091654 C123.57878,5.091654 157.839981,39.3531785 157.839981,81.4658176 C157.839981,123.578457 123.578457,157.839658 81.4658176,157.839658 L81.4658176,157.839658 Z" id="Shape" fill="#0258A0"></path>
                    <path d="M81.4658176,5.091654 C123.578457,5.091654 157.839981,39.3531785 157.839981,81.4658176 C157.839981,123.578457 123.578457,157.839658 81.4658176,157.839658" id="Shape" fill="#003E7C"></path>
                    <path d="M81.4658176,10.183308 C120.770516,10.183308 152.748327,42.1611187 152.748327,81.4658176 C152.748327,120.770516 120.770516,152.748327 81.4658176,152.748327 C42.1611187,152.748327 10.183308,120.770193 10.183308,81.4658176 C10.183308,42.1614419 42.1611187,10.183308 81.4658176,10.183308 L81.4658176,10.183308 Z M81.4658176,0 C36.4738117,0 0,36.4712261 0,81.4658176 C0,126.460409 36.4738117,162.931635 81.4658176,162.931635 C126.457824,162.931635 162.931635,126.460409 162.931635,81.4658176 C162.931635,36.4712261 126.4575,0 81.4658176,0 L81.4658176,0 L81.4658176,0 Z" id="Shape" fill="#229BFF"></path>
                    <circle id="Oval" fill="#04345B" cx="81.4658176" cy="81.0585377" r="46.2573243"></circle>
                    <g id="Group" transform="translate(65.609100, 65.281650)" fill="#04345B">
                        <path d="M19.8637206,11.7624512 L15.8567176,0.19424172 L11.8468057,11.7647135 L15.85898,10.3749641 L19.8637206,11.7624512 Z" id="Shape"></path>
                        <path d="M19.8688918,19.784214 L15.85898,21.1742866 L11.8445433,19.7816285 L15.8567176,31.359857 L19.8688918,19.784214 Z" id="Shape"></path>
                        <path d="M19.8688918,19.784214 L31.4419492,15.7746254 L19.8637206,11.7624512 L21.2560556,15.777211 L19.8688918,19.784214 Z" id="Shape"></path>
                        <path d="M11.8468057,11.7647135 L0.276333894,15.7746254 L11.8445433,19.7816285 L10.4570563,15.777211 L11.8468057,11.7647135 Z" id="Shape"></path>
                    </g>
                    <g id="radar-(1)" transform="translate(25.555995, 26.415020)" fill="#FFFFFF">
                        <g id="Layer_1">
                            <path d="M109.955204,54.9776021 C109.955204,24.6630382 85.292166,0 54.9776021,0 C39.7030632,0 27.006888,5.29073518 16.1689987,16.1743676 C15.4562227,16.8890764 15.4562227,18.0491897 16.1709315,18.7619657 L26.4699974,29.0610316 C26.4699974,29.0610316 26.4717154,29.0629644 26.4717154,29.0646825 L26.4736482,29.0646825 L53.6819776,56.2730119 C54.3986192,56.9896535 55.5567997,56.9896535 56.2732266,56.2730119 C56.9896535,55.5563702 56.9898682,54.3981897 56.2732266,53.6817628 L51.2024018,48.6109381 C52.2688814,47.9896482 53.5206957,47.6468972 54.9776021,47.6468972 C59.0203887,47.6468972 62.3078775,50.9346008 62.3078775,54.9771726 C62.3078775,59.0199592 59.0201739,62.307448 54.9776021,62.307448 C50.9348155,62.307448 47.6473267,59.0197444 47.6473267,54.9771726 C47.6473267,53.9656706 46.8263136,53.1446574 45.8148116,53.1446574 C44.8033096,53.1446574 43.9822964,53.9656706 43.9822964,54.9771726 C43.9822964,61.0412451 48.9137444,65.972693 54.9778169,65.972693 C61.0418893,65.972693 65.9733373,61.0412451 65.9733373,54.9771726 C65.9733373,48.9131001 61.0418893,43.9816522 54.9778169,43.9816522 C52.5130593,43.9816522 50.3249078,44.6632885 48.5417866,45.9498933 L40.7862938,38.1944005 C44.7519829,34.8315323 49.7201542,32.9861318 54.9778169,32.9861318 C67.104029,32.9861318 76.9688577,42.8509605 76.9688577,54.9771726 C76.9688577,64.6313254 70.7673412,73.0154097 61.7089223,75.9090356 C60.5853175,73.3033979 57.9921357,71.4708827 54.9776021,71.4708827 C51.9611357,71.4708827 49.3698867,73.3033979 48.2464967,75.9111831 C39.1880777,73.0175573 32.9865613,64.6317549 32.9865613,54.9776021 C32.9865613,51.6441555 33.7379934,48.4114295 35.2204559,45.373058 C35.6639275,44.4622767 35.286386,43.3663755 34.3775375,42.920971 C33.4648235,42.4755665 32.3689223,42.8567589 31.9254506,43.7658221 C30.197307,47.3099447 29.3213162,51.0814941 29.3213162,54.9776021 C29.3213162,66.4496667 36.8330606,76.3767747 47.7242095,79.5708445 C48.1163544,83.2470422 51.198751,86.1314335 54.9776021,86.1314335 C58.7564532,86.1314335 61.8388498,83.2468274 62.2290619,79.5708445 C73.1202108,76.3765599 80.6336733,66.4477339 80.6336733,54.9776021 C80.6336733,40.8301041 69.1251001,29.3213162 54.9773874,29.3213162 C48.7410804,29.3213162 42.8567589,31.5515599 38.1946153,35.6033663 L30.4245191,27.8313373 C37.1758116,21.7122872 45.8090132,18.3257958 54.9776021,18.3257958 C62.454556,18.3257958 69.5668538,20.5633412 75.6747365,24.760108 C75.3339183,25.6049592 75.135913,26.5230422 75.135913,27.4888011 C75.135913,31.5315876 78.4236166,34.8190764 82.4661884,34.8190764 C83.4319473,34.8190764 84.3519631,34.6210711 85.1968142,34.280253 C89.3933663,40.3883505 91.6291937,47.4987154 91.6291937,54.9773874 C91.6291937,75.1872398 75.1872398,91.6291937 54.9773874,91.6291937 C34.7675349,91.6291937 18.3257958,75.1874545 18.3257958,54.9776021 C18.3257958,47.803025 20.4149447,40.8410567 24.3696812,34.8429144 C24.9267589,33.9980632 24.6939631,32.8617879 23.8473939,32.3029921 C23.0025428,31.7439816 21.8664822,31.9804282 21.3091897,32.8252793 C16.9586574,39.4245244 14.6607655,47.0827325 14.6607655,54.9776021 C14.6607655,77.2087404 32.7464638,95.2944387 54.9776021,95.2944387 C77.2087404,95.2944387 95.2944387,77.2087404 95.2944387,54.9776021 C95.2944387,46.6998221 92.8039104,38.8324414 88.1308142,32.0850145 C89.1552016,30.8224625 89.7966785,29.2371318 89.7966785,27.4888011 C89.7966785,23.4460145 86.508975,20.1585257 82.4664032,20.1585257 C80.7180725,20.1585257 79.1310237,20.8000026 77.8701897,21.826108 C71.1227628,17.1510791 63.2517312,14.6607655 54.9776021,14.6607655 C44.8286509,14.6607655 35.2790843,18.4303821 27.8332701,25.240303 L20.0760593,17.4828775 C29.9005138,8.18801186 41.3375731,3.66524506 54.9776021,3.66524506 C83.2728129,3.66524506 106.289959,26.6843241 106.289959,54.9776021 C106.289959,66.0811449 102.613762,76.9155982 95.9760751,85.7594756 C94.7556153,84.854278 93.2619855,84.2989183 91.6291937,84.2989183 C87.5864071,84.2989183 84.2989183,87.5866219 84.2989183,91.6291937 C84.2989183,93.2619855 84.854278,94.7556153 85.7594756,95.9760751 C76.9153834,102.61548 66.0867286,106.289959 54.9776021,106.289959 C26.6823913,106.289959 3.66524506,83.2708801 3.66524506,54.9776021 C3.66524506,45.2759881 6.39222003,35.8288603 11.554531,27.6556667 C12.0950725,26.799863 11.8386535,25.6672385 10.9828498,25.126697 C10.1287642,24.5878735 8.99442161,24.8425744 8.45388011,25.6983781 C2.92304743,34.4580711 0,44.5831845 0,54.9776021 C0,85.292166 24.6630382,109.955204 54.9776021,109.955204 C67.1935823,109.955204 79.0962332,105.818999 88.7044282,98.3439776 C89.6023241,98.7361225 90.5902029,98.9596838 91.6291937,98.9596838 C95.6719802,98.9596838 98.959469,95.6719802 98.959469,91.6294084 C98.959469,90.5904177 98.7359078,89.6061897 98.3437628,88.7082938 C105.818999,79.1018169 109.955204,67.1862806 109.955204,54.9776021 L109.955204,54.9776021 Z M54.9776021,82.4664032 C52.9563162,82.4664032 51.312357,80.8226588 51.312357,78.8011581 C51.312357,76.7796574 52.9561014,75.135913 54.9776021,75.135913 C56.998888,75.135913 58.6428472,76.7796574 58.6428472,78.8011581 C58.6428472,80.8226588 56.998888,82.4664032 54.9776021,82.4664032 L54.9776021,82.4664032 Z M82.4664032,23.823556 C84.4876891,23.823556 86.1316482,25.4673004 86.1316482,27.4888011 C86.1316482,28.4930013 85.7229671,29.4020646 85.0688195,30.0654466 C84.896585,30.127726 84.7243505,30.1900053 84.5720883,30.3055441 C84.4365771,30.4081976 84.3465942,30.5419908 84.2495244,30.6702003 C83.7199354,30.9689262 83.1151818,31.1540461 82.4664032,31.1540461 C80.4451173,31.1540461 78.8011581,29.5103017 78.8011581,27.4888011 C78.8011581,25.4675152 80.4451173,23.823556 82.4664032,23.823556 L82.4664032,23.823556 Z M91.6294084,95.2944387 C91.090585,95.2944387 90.584834,95.1715982 90.1248261,94.9628551 C90.1119407,94.9463188 90.1082899,94.9261318 90.0954045,94.9098103 C89.8535889,94.616668 89.5327431,94.4498024 89.1955758,94.3471489 C88.4460764,93.6764651 87.9641634,92.7124242 87.9641634,91.6294084 C87.9641634,89.6081225 89.6079078,87.9641634 91.6294084,87.9641634 C93.6509091,87.9641634 95.2946535,89.6079078 95.2946535,91.6294084 C95.2946535,93.6509091 93.6506943,95.2944387 91.6294084,95.2944387 L91.6294084,95.2944387 Z" id="Shape"></path>
                        </g>
                    </g>
                </g>
            </g>
        </g>
    </g>
</svg>