<?xml version="1.0" encoding="UTF-8"?>
<svg width="200px" height="200px" viewBox="0 0 200 200" version="1.1" xmlns="http://www.w3.org/2000/svg" xmlns:xlink="http://www.w3.org/1999/xlink" xmlns:sketch="http://www.bohemiancoding.com/sketch/ns">
    <!-- Generator: Sketch 3.5.1 (25234) - http://www.bohemiancoding.com/sketch -->
    <title>uploadservice@3x</title>
    <desc>Created with Sketch.</desc>
    <defs></defs>
    <g id="All" stroke="none" stroke-width="1" fill="none" fill-rule="evenodd" sketch:type="MSPage">
        <g id="All-logos" sketch:type="MSArtboardGroup" transform="translate(-31.000000, -658.000000)">
            <g id="titles" sketch:type="MSLayerGroup" transform="translate(64.000000, 259.000000)"></g>
            <g id="logo-uploadservice" sketch:type="MSLayerGroup" transform="translate(-26.000000, 626.000000)">
                <g id="Group" transform="translate(72.694656, 46.703441)" sketch:type="MSShapeGroup">
                    <path d="M83.7416122,161.961645 C126.974228,161.961645 162.021188,126.927565 162.021188,83.7108369 C162.021188,40.4941092 126.974228,5.46002925 83.7416122,5.46002925 C40.5089963,5.46002925 5.46203656,40.4941092 5.46203656,83.7108369 C5.46203656,126.927565 40.5089963,161.961645 83.7416122,161.961645 Z" id="Mask" fill="#5C9E85"></path>
                    <path d="M103.791611,78.2105025 C103.791611,77.6927527 103.625183,77.2674646 103.292321,76.9346254 L83.7645497,57.4081582 C83.4316883,57.075319 83.0063717,56.9089019 82.4885873,56.9089019 C81.9708029,56.9089019 81.5454864,57.075319 81.212625,57.4081582 L61.7403301,76.8791525 C61.3704841,77.3229381 61.1855639,77.766717 61.1855639,78.2105025 C61.1855639,78.7282524 61.3519921,79.1535405 61.6848535,79.4863796 C62.0177149,79.8192188 62.4430314,79.9856359 62.9608159,79.9856359 L75.3875795,79.9856359 L75.3875795,99.5121031 C75.3875795,99.9928708 75.5632537,100.408914 75.9146074,100.760244 C76.2659611,101.111574 76.6820317,101.287236 77.1628315,101.287236 L87.8143432,101.287236 C88.295143,101.287236 88.7112135,101.111574 89.0625672,100.760244 C89.4139209,100.408914 89.5895951,99.9928708 89.5895951,99.5121031 L89.5895951,79.9856359 L102.016359,79.9856359 C102.497159,79.9856359 102.913229,79.8099734 103.264583,79.4586432 C103.615937,79.1073129 103.791611,78.6912702 103.791611,78.2105025 L103.791611,78.2105025 Z M139.29665,94.186703 C139.29665,100.066862 137.216297,105.087111 133.05553,109.2476 C128.894762,113.40809 123.874178,115.488304 117.993626,115.488304 L57.63506,115.488304 C50.7929089,115.488304 44.9401837,113.056765 40.0767087,108.193615 C35.2132337,103.330465 32.7815327,97.4781303 32.7815327,90.6364362 C32.7815327,85.8287593 34.0759743,81.3909702 36.6648963,77.3229358 C39.2538184,73.2549015 42.7303187,70.2039215 47.0945015,68.1699043 C47.0205323,67.0604404 46.9835483,66.2653365 46.9835483,65.7845689 C46.9835483,57.9443572 49.7573517,51.250692 55.3050418,45.7033725 C60.8527319,40.1560529 67.5468442,37.3824347 75.3875795,37.3824347 C81.1571772,37.3824347 86.4366497,38.9911333 91.2261555,42.2085786 C96.0156613,45.426024 99.5014076,49.6973959 101.683499,55.0228227 C104.309406,52.7299306 107.379081,51.5835018 110.892619,51.5835018 C114.812986,51.5835018 118.160042,52.9703109 120.933887,55.7439707 C123.707732,58.5176304 125.094634,61.864463 125.094634,65.7845689 C125.094634,68.5952108 124.336461,71.1469395 122.820093,73.4398316 C127.628091,74.5862776 131.576138,77.0917794 134.664352,80.956412 C137.752566,84.8210446 139.29665,89.2310975 139.29665,94.186703 L139.29665,94.186703 Z" id="cloud" fill="#FFFFFF"></path>
                    <path d="M83.721374,167.381212 C129.959412,167.381212 167.442748,129.911652 167.442748,83.6906062 C167.442748,37.4695607 129.959412,0 83.721374,0 C37.4833359,0 0,37.4695607 0,83.6906062 C0,129.911652 37.4833359,167.381212 83.721374,167.381212 Z M83.721374,160.522665 C126.170149,160.522665 160.581679,126.123781 160.581679,83.6906062 C160.581679,41.2574318 126.170149,6.85854724 83.721374,6.85854724 C41.2725995,6.85854724 6.8610687,41.2574318 6.8610687,83.6906062 C6.8610687,126.123781 41.2725995,160.522665 83.721374,160.522665 Z" id="Mask" stroke="#FFFFFF" fill="#FFFFFF"></path>
                </g>
            </g>
        </g>
    </g>
</svg>