<?xml version="1.0" encoding="UTF-8"?>
<svg width="200px" height="200px" viewBox="0 0 200 200" version="1.1" xmlns="http://www.w3.org/2000/svg" xmlns:xlink="http://www.w3.org/1999/xlink" xmlns:sketch="http://www.bohemiancoding.com/sketch/ns">
    <!-- Generator: Sketch 3.5.1 (25234) - http://www.bohemiancoding.com/sketch -->
    <title>waterkaart@3x</title>
    <desc>Created with Sketch.</desc>
    <defs></defs>
    <g id="All" stroke="none" stroke-width="1" fill="none" fill-rule="evenodd" sketch:type="MSPage">
        <g id="All-logos" sketch:type="MSArtboardGroup" transform="translate(-1001.000000, -55.000000)">
            <g id="logo-waterkaart" sketch:type="MSLayerGroup" transform="translate(949.000000, 28.000000)">
                <g id="Group" transform="translate(70.882952, 45.610049)" sketch:type="MSShapeGroup">
                    <path d="M81.6545938,158.1699 C123.809761,158.1699 157.983277,123.956016 157.983277,81.7510514 C157.983277,39.5460866 123.809761,5.33220248 81.6545938,5.33220248 C39.4994263,5.33220248 5.32591104,39.5460866 5.32591104,81.7510514 C5.32591104,123.956016 39.4994263,158.1699 81.6545938,158.1699 Z" id="Mask" fill="#1B99D1"></path>
                    <path d="M112.742371,100.362245 L91.8266749,109.227717 L70.1764714,101.793113 L48.084958,111.599835 L96.7048872,158.056007 L120.457615,150.770051 L141.315379,134.543729 L157.419135,102.893203 L113.188876,52.9047794 L112.742371,100.362245 Z" id="Path-5" fill="#0F71A0"></path>
                    <path d="M81.6348601,163.462589 C126.720548,163.462589 163.26972,126.870242 163.26972,81.7312944 C163.26972,36.5923469 126.720548,0 81.6348601,0 C36.5491718,0 0,36.5923469 0,81.7312944 C0,126.870242 36.5491718,163.462589 81.6348601,163.462589 Z M81.6348601,156.76461 C123.025721,156.76461 156.579644,123.17105 156.579644,81.7312944 C156.579644,40.2915387 123.025721,6.69797925 81.6348601,6.69797925 C40.2439989,6.69797925 6.69007634,40.2915387 6.69007634,81.7312944 C6.69007634,123.17105 40.2439989,156.76461 81.6348601,156.76461 Z" id="Mask" stroke="#FFFFFF" fill="#FFFFFF"></path>
                    <path d="M113.440683,53.3888844 C114.054197,53.8277583 114.360949,54.4092575 114.360949,55.1333995 L114.360949,101.478254 C114.360949,101.917128 114.240439,102.312109 113.999416,102.663208 C113.758393,103.014307 113.440685,103.266656 113.046283,103.420262 L92.0116231,111.846599 C91.485754,112.08798 90.9598928,112.08798 90.4340236,111.846599 L70.1881635,103.749416 L49.9423033,111.846599 C49.7231912,111.956317 49.4602606,112.011176 49.1535036,112.011176 C48.7371905,112.011176 48.3427946,111.890487 47.9703039,111.649107 C47.35679,111.210233 47.0500376,110.628734 47.0500376,109.904592 L47.0500376,63.5597368 C47.0500376,63.1208628 47.1705474,62.7258822 47.4115708,62.3747831 C47.6525941,62.0236839 47.970302,61.7713352 48.3647038,61.6177293 L69.3993637,53.1913921 C69.9252329,52.9500114 70.4510941,52.9500114 70.9769632,53.1913921 L91.2228234,61.2885755 L111.468684,53.1913921 C112.169842,52.906124 112.827169,52.9719542 113.440683,53.3888844 L113.440683,53.3888844 Z M71.2398965,57.8324607 L71.2398965,99.6349931 L90.1710904,107.20553 L90.1710904,65.402998 L71.2398965,57.8324607 Z M51.2569696,64.9750981 L51.2569696,106.77763 L69.1364305,99.6349931 L69.1364305,57.8324607 L51.2569696,64.9750981 Z M110.154017,100.062893 L110.154017,58.2603606 L92.2745564,65.402998 L92.2745564,107.20553 L110.154017,100.062893 Z" id="Type-something" fill="#FFFFFF"></path>
                </g>
            </g>
        </g>
    </g>
</svg>